<?xml version="1.0" encoding="UTF-8" standalone="no"?>
<!-- Created with Inkscape (http://www.inkscape.org/) -->

<svg
   xmlns:dc="http://purl.org/dc/elements/1.1/"
   xmlns:cc="http://creativecommons.org/ns#"
   xmlns:rdf="http://www.w3.org/1999/02/22-rdf-syntax-ns#"
   xmlns:svg="http://www.w3.org/2000/svg"
   xmlns="http://www.w3.org/2000/svg"
   xmlns:xlink="http://www.w3.org/1999/xlink"
   xmlns:sodipodi="http://sodipodi.sourceforge.net/DTD/sodipodi-0.dtd"
   xmlns:inkscape="http://www.inkscape.org/namespaces/inkscape"
   version="1.1"
   id="svg864"
   width="533.33331"
   height="533.33331"
   viewBox="0 0 533.33331 533.33331"
   sodipodi:docname="croissant-flying.svg"
   inkscape:version="0.92.4 5da689c313, 2019-01-14">
  <metadata
     id="metadata870">
    <rdf:RDF>
      <cc:Work
         rdf:about="">
        <dc:format>image/svg+xml</dc:format>
        <dc:type
           rdf:resource="http://purl.org/dc/dcmitype/StillImage" />
        <dc:title></dc:title>
      </cc:Work>
    </rdf:RDF>
  </metadata>
  <defs
     id="defs868">
    <linearGradient
       inkscape:collect="always"
       id="linearGradient1012">
      <stop
         style="stop-color:#ca4913;stop-opacity:1;"
         offset="0"
         id="stop1008" />
      <stop
         style="stop-color:#ca4913;stop-opacity:1"
         offset="1"
         id="stop1010" />
    </linearGradient>
    <linearGradient
       inkscape:collect="always"
       xlink:href="#linearGradient1012"
       id="linearGradient1014"
       x1="845.29199"
       y1="275.59338"
       x2="1378.6252"
       y2="275.59338"
       gradientUnits="userSpaceOnUse"
       gradientTransform="translate(-845.29199,-8.9267225)" />
  </defs>
  <sodipodi:namedview
     pagecolor="#ffffff"
     bordercolor="#666666"
     borderopacity="1"
     objecttolerance="10"
     gridtolerance="10"
     guidetolerance="10"
     inkscape:pageopacity="0"
     inkscape:pageshadow="2"
     inkscape:window-width="1920"
     inkscape:window-height="1026"
     id="namedview866"
     showgrid="false"
     inkscape:zoom="1.4563015"
     inkscape:cx="338.68606"
     inkscape:cy="276.72871"
     inkscape:window-x="0"
     inkscape:window-y="25"
     inkscape:window-maximized="1"
     inkscape:current-layer="svg864" />
  <rect
     style="opacity:1;fill:url(#linearGradient1014);fill-opacity:1;stroke:none;stroke-width:37.79527664;stroke-linejoin:round;stroke-miterlimit:4;stroke-dasharray:none;stroke-opacity:0.82231403;paint-order:stroke fill markers"
     id="rect874"
     width="533.33331"
     height="533.33331"
     x="0"
     y="0" />
  <path
     style="opacity:1;fill:#c28236;fill-opacity:0.99173554;stroke:#5e0000;stroke-width:1.83514857;stroke-linejoin:round;stroke-miterlimit:4;stroke-dasharray:none;stroke-opacity:1;paint-order:markers stroke fill"
     d="m 349.21321,172.39673 c -20.2156,-9.5754 -46.1809,-21.01938 -83.2718,-36.70126 -7.3439,-3.10499 -22.748,-9.82689 -34.2312,-14.93757 -16.9357,-7.53728 -21.7501,-9.89287 -25.4931,-12.47304 -6.0147,-4.14613 -9.1813,-6.5096 -9.2048,-6.87015 -0.061,-0.93377 8.3621,-3.105753 16.7325,-4.314693 1.8694,-0.26999 4.116,-0.61186 4.9924,-0.75972 1.4708,-0.24811 1.572,-0.18273 1.3134,0.84858 -0.2342,0.93371 0.2621,1.5599 3.0191,3.809213 5.962,4.86408 11.9906,7.68899 68.8486,32.26128 29.7197,12.84392 49.5875,22.05365 65.6198,30.41798 8.7739,4.57753 16.0023,8.36077 16.0631,8.40721 0.061,0.0464 0.4091,2.10157 0.774,4.56698 l 0.6636,4.48255 -1.3346,0.95031 c -0.734,0.52266 -1.5193,0.93713 -1.7451,0.92103 -0.2259,-0.0161 -10.4615,-4.79002 -22.7459,-10.6087 z"
     id="path958"
     inkscape:connector-curvature="0" />
  <path
     style="opacity:1;fill:#c28236;fill-opacity:0.99173554;stroke:#5e0000;stroke-width:1.83514857;stroke-linejoin:round;stroke-miterlimit:4;stroke-dasharray:none;stroke-opacity:1;paint-order:markers stroke fill"
     d="m 354.55421,209.69677 c -13.8145,-3.48415 -94.3374,-20.39374 -118.7169,-24.9302 -7.878,-1.46593 -20.2231,-3.66652 -27.4335,-4.8902 -23.1779,-3.93353 -54.29493,-9.94577 -54.97014,-10.62097 -0.24809,-0.24809 6.10864,-15.26279 12.91454,-30.50438 5.6497,-12.65246 6.0273,-13.27331 15.5023,-25.49348 4.1791,-5.38985 4.9674,-6.14942 8.6925,-8.37574 2.2532,-1.34659 4.3854,-2.44835 4.7383,-2.44835 0.3529,0 2.1389,1.16451 3.9688,2.58779 7.4416,5.78801 10.6412,7.49859 31.2687,16.71671 11.3373,5.06649 27.7145,12.21772 36.3937,15.89163 36.9516,15.64163 62.6853,26.98145 81.5724,35.94576 11.0826,5.26013 20.7511,9.78023 21.4855,10.04466 0.7344,0.26444 1.3353,0.68151 1.3353,0.92683 0,0.24531 -0.6788,2.89148 -1.5084,5.88037 -1.482,5.33932 -1.495,5.4814 -0.7485,8.12498 l 0.7598,2.69064 -1.4364,2.02157 c -1.1824,1.66406 -1.4364,2.50542 -1.4364,4.7574 0,2.37593 0.1756,2.89043 1.3352,3.91106 1.1804,1.03894 1.2226,1.16916 0.3642,1.12279 -0.5341,-0.0288 -6.8706,-1.54034 -14.081,-3.35887 z"
     id="path960"
     inkscape:connector-curvature="0" />
  <path
     style="opacity:1;fill:#c28236;fill-opacity:0.99173554;stroke:#5e0000;stroke-width:1.83514857;stroke-linejoin:round;stroke-miterlimit:4;stroke-dasharray:none;stroke-opacity:1;paint-order:markers stroke fill"
     d="m 151.48087,365.1625 c -2.81145,-2.62268 -3.18278,-3.22703 -5.2174,-8.49134 -1.20478,-3.11724 -2.98511,-8.77421 -3.95628,-12.57106 -1.62643,-6.35859 -1.75823,-7.39207 -1.67025,-13.0964 0.0848,-5.4957 -0.0132,-6.34581 -0.87048,-7.54967 -0.60441,-0.84882 -1.17528,-2.88504 -1.52507,-5.43979 -0.61602,-4.49916 -0.68044,-4.65826 -3.76956,-9.3098 -2.09607,-3.15622 -2.13776,-3.29372 -1.54565,-5.09827 1.19709,-3.64827 5.42301,-13.10839 8.02619,-17.96738 3.2698,-6.10327 6.58312,-9.3045 16.56444,-16.00412 6.0154,-4.03755 7.9863,-5.05581 15.4715,-7.99311 4.9955,-1.96032 12.4584,-4.39168 17.8695,-5.82178 8.1805,-2.162 30.865,-8.45656 76.783,-21.30592 7.4775,-2.09244 17.2813,-4.58962 21.7862,-5.54929 7.9683,-1.69744 8.477,-1.74484 18.7246,-1.74484 6.53,0 12.552,0.27107 15.8439,0.71318 10.0566,1.35065 26.916,7.34736 33.5499,11.93338 1.9222,1.32879 4.1921,2.55543 5.0443,2.72586 l 1.5494,0.30988 -0.3279,6.36118 c -0.9151,17.75191 -0.9376,17.89426 -3.8869,24.56929 -2.3686,5.36071 -2.6827,6.44742 -2.6906,9.30719 -0.01,3.12932 -0.082,3.32358 -2.1939,5.79757 l -2.185,2.55976 v 11.68222 c 0,10.84088 0.073,11.78711 0.9679,13.13886 0.7844,1.1844 0.9653,2.28248 0.9679,5.87513 0,4.16794 -0.082,4.53569 -1.4941,6.48544 l -1.4973,2.06695 -1.332,-1.27618 c -1.7862,-1.71131 -9.8135,-4.01149 -17.0376,-4.88206 -3.0711,-0.3701 -10.6092,-0.81113 -16.7514,-0.98007 -13.4283,-0.36934 -18.5937,0.1206 -51.4683,4.88188 -45.3545,6.56875 -56.4845,8.49965 -71.2164,12.3551 -8.6993,2.27666 -12.2988,3.47868 -17.1613,5.73072 l -6.153,2.84978 -5.5595,6.02471 c -3.0577,3.3136 -6.5877,7.49848 -7.8445,9.29974 -1.2568,1.80126 -2.3943,3.26644 -2.5279,3.25596 -0.1335,-0.0105 -1.60484,-1.2897 -3.26963,-2.8427 z"
     id="path964"
     inkscape:connector-curvature="0" />
  <path
     style="opacity:1;fill:#c28236;fill-opacity:0.99173554;stroke:#5e0000;stroke-width:1.83514857;stroke-linejoin:round;stroke-miterlimit:4;stroke-dasharray:none;stroke-opacity:1;paint-order:markers stroke fill"
     d="m 171.93651,381.23427 c -2.1645,-1.25414 -6.6783,-4.44722 -10.0308,-7.09574 l -6.0954,-4.81548 2.0193,-3.00349 c 1.1105,-1.65192 4.6412,-5.86679 7.8458,-9.36638 l 5.8266,-6.36289 6.3121,-2.90029 c 13.4696,-6.18897 33.8758,-10.24034 95.4106,-18.9424 25.8213,-3.65158 30.8565,-4.08247 43.6994,-3.73969 14.2012,0.37904 21.1068,1.21141 27.402,3.3029 5.9828,1.98767 6.9296,2.96628 6.0912,6.29584 l -0.5536,2.19854 -3.1393,-1.13949 c -4.5945,-1.66773 -10.4969,-1.51259 -31.1479,0.81873 -32.6914,3.69059 -48.482,6.06536 -72.2132,10.86028 -19.8086,4.00236 -27.2814,5.89254 -35.618,9.00923 -6.3113,2.3595 -8.4991,3.456 -12.9369,6.48368 -4.6145,3.14821 -6.1858,4.61215 -11.5502,10.76093 -3.849,4.41181 -6.3175,7.65886 -6.4942,8.54259 -0.1568,0.78408 -0.4217,1.41385 -0.5886,1.39949 -0.1669,-0.0144 -2.0744,-1.05223 -4.2389,-2.30636 z"
     id="path966"
     inkscape:connector-curvature="0" />
  <path
     style="opacity:1;fill:#c28236;fill-opacity:0.99173554;stroke:#5e0000;stroke-width:1.83514857;stroke-linejoin:round;stroke-miterlimit:4;stroke-dasharray:none;stroke-opacity:1;paint-order:markers stroke fill"
     d="m 215.16801,448.77457 c -2.0852,-3.41745 -5.4195,-9.60025 -7.4094,-13.73956 -2.2947,-4.77316 -5.3819,-10.11613 -8.4402,-14.60708 -4.6936,-6.89243 -4.8731,-7.2576 -6.739,-13.7092 -1.0848,-3.75117 -3.1604,-9.25925 -4.7819,-12.68979 l -2.8649,-6.06163 -3.6651,-1.81352 c -5.0721,-2.50976 -5.1965,-2.08246 3.5594,-12.22693 4.8079,-5.57037 6.2791,-6.92328 10.9249,-10.04666 4.3633,-2.93352 6.7326,-4.11514 12.652,-6.30991 11.3503,-4.20846 35.8403,-9.60693 63.8498,-14.07477 18.8032,-2.99934 53.6467,-7.04734 63.3642,-7.36144 7.3963,-0.23908 7.9201,-0.19382 10.9249,0.94389 l 3.156,1.19501 -0.034,5.28848 c -0.055,8.53764 -0.9626,15.72472 -2.4263,19.22205 -0.7045,1.68336 -3.4359,6.99361 -6.0699,11.80056 -2.6339,4.80694 -5.0363,9.45001 -5.3385,10.31793 -0.617,1.77149 -0.5401,1.75382 -4.6968,1.07925 -2.6403,-0.42849 -3.7279,-0.33029 -8.4908,0.76658 -13.2685,3.05571 -28.8734,8.58107 -39.7581,14.07749 -12.1614,6.14111 -27.7483,16.49959 -36.3645,24.1666 -11.581,10.30506 -18.2292,17.15845 -22.9307,23.63848 -2.422,3.33815 -4.4544,6.13424 -4.5165,6.21354 -0.062,0.0793 -1.819,-2.65193 -3.9042,-6.06937 z"
     id="path968"
     inkscape:connector-curvature="0" />
  <path
     style="opacity:1;fill:#c28236;fill-opacity:0.99173554;stroke:#5e0000;stroke-width:1.83514857;stroke-linejoin:round;stroke-miterlimit:4;stroke-dasharray:none;stroke-opacity:1;paint-order:markers stroke fill"
     d="m 243.08951,471.48968 c -6.6256,-2.87201 -14.1682,-7.50737 -19.2322,-11.81938 l -4.02,-3.42301 2.2648,-3.20151 c 7.0034,-9.90037 12.5989,-15.82811 26.0839,-27.63263 6.8015,-5.95395 18.5415,-13.98286 29.417,-20.11814 12.5717,-7.09212 28.9917,-13.34438 44.9463,-17.11421 3.9994,-0.945 5.9108,-1.16683 8.0089,-0.92946 3.9083,0.44217 4.0987,0.62417 3.4303,3.27869 -0.3056,1.21364 -0.5557,3.30744 -0.5557,4.65288 0,2.27094 -0.096,2.46815 -1.3352,2.75159 -13.2377,3.02696 -16.1159,4.17768 -31.5573,12.61661 -16.7927,9.17743 -25.2443,14.54943 -29.6534,18.84824 -5.0808,4.95381 -9.6718,11.52094 -12.5225,17.91282 -3.3739,7.56496 -6.9548,16.58604 -8.6335,21.74976 l -1.5121,4.65117 z"
     id="path970"
     inkscape:connector-curvature="0" />
  <path
     style="opacity:1;fill:#c28236;fill-opacity:0.99173554;stroke:#5e0000;stroke-width:1.83514857;stroke-linejoin:round;stroke-miterlimit:4;stroke-dasharray:none;stroke-opacity:1;paint-order:markers stroke fill"
     d="m 289.63691,486.08167 c -1.6816,-0.39361 -2.8749,-2.25467 -14.7996,-23.08195 -5.213,-9.10486 -10.2465,-17.35419 -11.1855,-18.33185 l -1.7074,-1.77755 3.0176,-4.40574 c 5.9244,-8.64993 12.7451,-13.76835 33.754,-25.32997 14.8865,-8.1923 20.0256,-10.49305 27.7662,-12.43078 6.7132,-1.68053 7.166,-1.73522 7.65,-0.92411 0.283,0.47418 3.0356,4.71778 6.117,9.43021 6.9965,10.69997 9.8667,15.95102 10.8972,19.93675 0.4428,1.71289 1.3179,4.44411 1.9446,6.06938 1.3456,3.48952 1.6576,5.77773 2.1576,15.82209 0.354,7.11004 0.3089,7.76755 -0.8146,11.89596 -2.2133,8.13271 -6.5775,14.13196 -12.4214,17.07488 -5.5073,2.77343 -6.7089,3.06579 -19.7474,4.8047 -10.7182,1.42945 -13.6535,1.6448 -21.8498,1.60299 -5.2075,-0.0266 -10.0578,-0.18632 -10.7785,-0.35501 z"
     id="path972"
     inkscape:connector-curvature="0" />
  <path
     style="opacity:1;fill:#c28236;fill-opacity:1;stroke:#5e0000;stroke-width:1.83514857;stroke-linejoin:round;stroke-miterlimit:4;stroke-dasharray:none;stroke-opacity:1;paint-order:markers stroke fill"
     d="m 272.98191,484.97423 c -1.8694,-0.82182 -5.9387,-2.30868 -9.043,-3.30413 -5.9906,-1.92099 -14.025,-6.38822 -14.0125,-7.79112 0.018,-2.02599 5.6388,-17.04998 9.7973,-26.18774 l 1.6427,-3.60968 1.5977,1.91026 c 0.8787,1.05064 5.7931,9.22992 10.9211,18.17617 5.1279,8.94625 10.1197,17.50105 11.0929,19.01066 1.7292,2.68217 1.7455,2.75121 0.7133,3.02806 -0.581,0.15582 -2.9136,0.27846 -5.1835,0.27253 -3.5348,-0.009 -4.615,-0.22525 -7.526,-1.50501 z"
     id="path974"
     inkscape:connector-curvature="0" />
  <path
     style="opacity:1;fill:#c28236;fill-opacity:1;stroke:#5e0000;stroke-width:1.83514857;stroke-linejoin:round;stroke-miterlimit:4;stroke-dasharray:none;stroke-opacity:1;paint-order:markers stroke fill"
     d="m 363.77971,108.39965 c -8.8968,-7.98345 -23.9511,-22.901757 -28.21,-27.955081 -8.0665,-9.571114 -13.8465,-19.775421 -15.9769,-28.206391 -1.6981,-6.719936 -1.6624,-7.099598 0.6675,-7.099598 4.7443,0 41.8067,4.212533 62.65,7.120827 l 12.8184,1.788576 2.2336,4.649356 2.2336,4.649355 -0.095,12.978502 -0.095,12.978503 -1.3247,2.316318 c -1.7555,3.06955 -10.1887,11.440883 -14.751,14.642913 -3.7422,2.62636 -12.6891,7.83265 -13.4253,7.8123 -0.2271,-0.006 -3.2534,-2.56029 -6.725,-5.67558 z"
     id="path976"
     inkscape:connector-curvature="0" />
  <path
     style="opacity:1;fill:#c28236;fill-opacity:1;stroke:#5e0000;stroke-width:1.83514857;stroke-linejoin:round;stroke-miterlimit:4;stroke-dasharray:none;stroke-opacity:1;paint-order:markers stroke fill"
     d="m 355.10911,106.79512 c -6.2243,-6.21979 -15.2348,-15.014313 -20.0232,-19.543385 -12.4263,-11.753221 -24.1964,-24.599477 -31.1231,-33.968797 -2.7276,-3.689396 -5.5696,-8.478831 -5.5696,-9.386092 0,-0.621582 13.0421,-0.824603 17.1145,-0.266415 l 2.1979,0.301262 0.3187,2.490648 c 1.1732,9.169473 6.3863,20.077757 14.7649,30.895308 5.2441,6.770737 19.9832,21.431008 35.7285,35.537531 l 1.9047,1.70646 -1.0946,1.7711 c -0.6249,1.01111 -1.4823,1.77109 -1.9982,1.77109 -0.5312,0 -5.5668,-4.65984 -12.2205,-11.30871 z"
     id="path978"
     inkscape:connector-curvature="0" />
  <path
     style="opacity:1;fill:#c28236;fill-opacity:1;stroke:#5e0000;stroke-width:1.83514857;stroke-linejoin:round;stroke-miterlimit:4;stroke-dasharray:none;stroke-opacity:1;paint-order:markers stroke fill"
     d="m 364.84171,166.00713 c -19.0965,-10.25714 -35.1547,-17.7231 -85.4233,-39.71591 -39.1537,-17.12998 -45.5237,-20.01815 -50.0312,-22.68399 -4.7945,-2.8356 -8.511,-5.645073 -8.511,-6.433833 0,-0.36842 2.7587,-3.25662 6.1305,-6.418216 3.3717,-3.1616 10.0848,-10.227553 14.918,-15.702126 10.0018,-11.329099 20.2732,-21.979898 23.9093,-24.792366 4.1275,-3.192612 7.5981,-4.045758 25.6165,-6.2971 4.4997,-0.562216 8.2267,-0.952873 8.2823,-0.868126 0.056,0.08475 0.8248,1.654399 1.7095,3.488115 3.4392,7.12903 14.3392,20.038365 30.3929,35.995497 16.1196,16.022672 36.7557,36.102295 37.9123,36.889995 0.6968,0.47455 1.2889,1.82152 1.8631,4.23811 0.4628,1.94836 2.2725,7.90663 4.0214,13.24059 l 3.1798,9.69812 -0.2533,5.86487 c -0.2268,5.2505 -0.4042,6.16739 -1.6942,8.75277 -0.7925,1.58834 -1.9634,4.25351 -2.6021,5.92258 -0.6387,1.66908 -1.2716,3.02549 -1.4065,3.01425 -0.1348,-0.0113 -3.7412,-1.8982 -8.014,-4.19323 z"
     id="path980"
     inkscape:connector-curvature="0" />
  <path
     style="opacity:1;fill:#c28236;fill-opacity:1;stroke:#5e0000;stroke-width:1.83514857;stroke-linejoin:round;stroke-miterlimit:4;stroke-dasharray:none;stroke-opacity:1;paint-order:markers stroke fill"
     d="m 352.12651,173.60171 c -23.2292,-10.90178 -40.4842,-18.57454 -75.7458,-33.68194 -33.5027,-14.35383 -57.682,-25.08155 -64.0925,-28.43618 -4.8111,-2.51765 -14.8093,-9.31976 -14.8093,-10.07526 0,-0.69524 6.3655,-2.398803 13.5126,-3.616273 8.448,-1.43907 8.8227,-1.4503 8.8227,-0.26441 0,2.05604 7.1319,6.914133 17.1835,11.705053 7.6055,3.62497 14.4395,6.64781 50.4805,22.32843 39.9011,17.36006 59.107,26.35953 79.7458,37.3673 l 6.3576,3.39085 0.5956,4.2574 c 0.5799,4.14494 0.5676,4.28006 -0.4634,5.11494 -0.5825,0.47164 -1.4172,0.84396 -1.855,0.82737 -0.4377,-0.0166 -9.3173,-4.02937 -19.7323,-8.91728 z"
     id="path982"
     inkscape:connector-curvature="0" />
  <path
     style="opacity:1;fill:#c28236;fill-opacity:1;stroke:#5e0000;stroke-width:1.83514857;stroke-linejoin:round;stroke-miterlimit:4;stroke-dasharray:none;stroke-opacity:1;paint-order:markers stroke fill"
     d="m 358.19591,210.43382 c -27.0972,-6.73441 -108.5421,-23.48988 -148.5442,-30.55963 -38.249,-6.75993 -55.87228,-10.24849 -55.87228,-11.06001 0,-0.69011 10.10868,-24.27498 14.36528,-33.51614 3.8746,-8.41196 5.9438,-11.69929 13.2502,-21.0506 4.7966,-6.13904 7.573,-8.58654 12.5128,-11.03067 1.5208,-0.75243 1.541,-0.74518 4.8555,1.73987 5.7122,4.28269 9.7856,6.72574 16.8717,10.11908 9.6594,4.62565 32.0016,14.46819 63.6591,28.04416 33.5865,14.40318 49.1444,21.31942 72.8325,32.37739 10.148,4.73724 18.5896,8.69625 18.7592,8.79778 0.1696,0.10153 -0.3501,2.64533 -1.1549,5.65289 -1.3712,5.12387 -1.426,5.65689 -0.8706,8.46289 0.573,2.89485 0.5508,3.05633 -0.6658,4.84683 -1.5458,2.27481 -1.7997,7.02182 -0.4551,8.50763 0.752,0.83095 0.7442,0.88449 -0.1214,0.83413 -0.5087,-0.0296 -4.7486,-1.00412 -9.422,-2.1656 z"
     id="path984"
     inkscape:connector-curvature="0" />
  <path
     style="opacity:1;fill:#c28236;fill-opacity:1;stroke:#5e0000;stroke-width:1.83514857;stroke-linejoin:round;stroke-miterlimit:4;stroke-dasharray:none;stroke-opacity:1;paint-order:markers stroke fill"
     d="m 128.71366,302.69545 c -6.07555,-7.71612 -9.34599,-12.29534 -9.6049,-13.44868 -0.16447,-0.73263 -0.31408,-3.1894 -0.33248,-5.4595 -0.0184,-2.27008 -0.36196,-8.59954 -0.76348,-14.06546 -0.63529,-8.64821 -0.64571,-12.7445 -0.0803,-31.56172 0.51788,-17.23609 0.85198,-22.85406 1.64658,-27.68741 2.17353,-13.22101 4.93847,-22.83985 8.01297,-27.87597 2.16657,-3.54893 8.17297,-9.53544 10.83025,-10.7944 1.45947,-0.69147 3.93136,-1.13399 8.38485,-1.50109 l 6.31525,-0.52057 14.54921,3.02545 c 8.0021,1.66401 26.8897,5.28628 41.9725,8.04951 31.9972,5.86204 39.444,7.34002 72.0047,14.29097 54.9747,11.73576 89.8698,19.7669 90.5504,20.84019 0.5091,0.80319 0.4331,3.20896 -0.1635,5.17063 -0.2832,0.9313 -0.7142,3.33089 -0.9576,5.33241 -0.3697,3.03961 -0.915,4.53496 -3.3102,9.07708 -2.2128,4.19617 -3.0925,5.43848 -3.8527,5.4403 -0.5418,8.8e-4 -2.9386,-1.17001 -5.3261,-2.60289 -7.4638,-4.47936 -19.1524,-8.96914 -29.2974,-11.25353 -5.7994,-1.3059 -26.6764,-2.00553 -33.147,-1.11084 -5.6868,0.78632 -22.2731,4.97352 -53.3535,13.46906 -14.8451,4.05775 -33.8096,9.20627 -42.1433,11.44116 -27.2155,7.29842 -33.471,9.70964 -44.6866,17.2246 -5.44833,3.65061 -10.60277,7.87701 -12.53252,10.27609 -2.83498,3.52449 -8.45353,14.74764 -11.22997,22.43205 -0.62117,1.71927 -1.28587,3.30488 -1.47709,3.5236 -0.19122,0.21872 -1.09484,-0.55125 -2.00804,-1.71104 z"
     id="path986"
     inkscape:connector-curvature="0" />
  <path
     style="opacity:1;fill:#c28236;fill-opacity:1;stroke:#5e0000;stroke-width:1.83514857;stroke-linejoin:round;stroke-miterlimit:4;stroke-dasharray:none;stroke-opacity:1;paint-order:markers stroke fill"
     d="m 151.96201,365.33123 c -2.82234,-2.46892 -4.51723,-5.57993 -6.86938,-12.60897 -3.07011,-9.17455 -3.98726,-13.67976 -4.24791,-20.86657 -0.18248,-5.03126 -0.47827,-7.36548 -1.13826,-8.98267 -0.49044,-1.20173 -1.03831,-3.27746 -1.21747,-4.61272 -0.50135,-3.73632 -1.17165,-5.4815 -3.4699,-9.03423 -1.16506,-1.80101 -2.1183,-3.70046 -2.1183,-4.221 0,-1.11443 2.42419,-7.20607 5.44908,-13.69278 4.53157,-9.71767 7.79891,-13.54232 17.05024,-19.95852 11.487,-7.96674 17.8305,-10.46217 46.9343,-18.4633 9.7474,-2.67973 28.557,-7.90408 41.7992,-11.60967 41.4004,-11.58522 48.775,-13.33675 58.2622,-13.83784 8.6437,-0.45653 21.8807,0.45824 27.8809,1.92676 10.2246,2.50239 21.9601,7.20582 28.3586,11.3657 1.7105,1.11204 3.5002,2.0219 3.9771,2.0219 0.477,0 0.9771,0.17776 1.1113,0.39503 0.3203,0.51818 -0.547,15.69022 -1.1971,20.94173 -0.3626,2.92923 -1.1415,5.63248 -2.7282,9.46822 -1.6216,3.92026 -2.3253,6.38809 -2.6087,9.14818 -0.3543,3.45085 -0.5597,3.9848 -2.3615,6.13676 l -1.9734,2.35704 v 11.73131 c 0,10.07819 0.1157,11.95028 0.8207,13.28524 0.5862,1.10981 0.829,2.80285 0.8497,5.92387 0.029,4.40705 -0.068,4.72262 -2.4563,7.94315 -0.071,0.0959 -0.7427,-0.25556 -1.4925,-0.78101 -5.2799,-3.70024 -20.019,-5.94895 -38.985,-5.94786 -11.0988,4.8e-4 -19.3522,0.9525 -59.2454,6.83281 -33.4009,4.92333 -45.2427,7.04861 -58.0673,10.42151 -8.9203,2.34608 -12.9619,3.72566 -18.6534,6.36729 -4.0279,1.86955 -5.4709,2.84382 -7.7596,5.23906 -3.7608,3.93603 -9.1018,10.17747 -11.1395,13.01758 -0.9101,1.2685 -1.7853,2.30637 -1.9449,2.30637 -0.15965,0 -1.42831,-0.99557 -2.8193,-2.21237 z"
     id="path988"
     inkscape:connector-curvature="0" />
  <path
     style="opacity:1;fill:#c28236;fill-opacity:1;stroke:#5e0000;stroke-width:1.83514857;stroke-linejoin:round;stroke-miterlimit:4;stroke-dasharray:none;stroke-opacity:1;paint-order:markers stroke fill"
     d="m 172.47311,381.30916 c -3.1409,-1.87114 -15.5286,-11.02324 -16.0397,-11.8502 -0.4166,-0.67394 3.8772,-6.26402 10.0207,-13.04605 4.7282,-5.21964 5.2831,-5.66755 9.4062,-7.59255 11.0145,-5.14245 22.7675,-8.14975 49.0522,-12.55122 21.0686,-3.52802 61.5964,-9.34355 73.2876,-10.51641 7.5852,-0.76094 30.7706,-0.32794 37.1769,0.6943 5.8581,0.93476 12.2391,2.94067 13.9005,4.36971 1.1743,1.0101 1.256,1.30723 0.9396,3.41731 -0.2622,1.74837 -0.5196,2.24461 -1.0574,2.03824 -4.2068,-1.6143 -6.4198,-1.8692 -14.0106,-1.6138 -11.5433,0.38839 -48.0843,4.74124 -68.4794,8.15744 -12.2433,2.05077 -33.9784,6.42754 -43.2845,8.71616 -19.6152,4.82391 -29.3686,9.83629 -38.1719,19.61701 -5.0298,5.5882 -8.613,10.27146 -8.613,11.25718 0,1.04375 -0.9634,0.78766 -4.1272,-1.09712 z"
     id="path990"
     inkscape:connector-curvature="0" />
  <path
     style="opacity:1;fill:#c28236;fill-opacity:1;stroke:#5e0000;stroke-width:1.83514857;stroke-linejoin:round;stroke-miterlimit:4;stroke-dasharray:none;stroke-opacity:1;paint-order:markers stroke fill"
     d="m 216.03751,449.75584 c -1.6137,-2.62188 -5.1569,-9.02776 -7.8737,-14.23528 -2.7168,-5.20752 -6.5516,-11.92065 -8.5217,-14.91806 -4.653,-7.07945 -4.7704,-7.32209 -7.2882,-15.05193 -1.1785,-3.61816 -3.2667,-9.06533 -4.6405,-12.10483 l -2.4979,-5.52636 -3.4579,-1.81216 c -2.3448,-1.22883 -3.5035,-2.13037 -3.5995,-2.80071 -0.1526,-1.06642 5.6163,-8.31942 10.8237,-13.60809 3.0328,-3.0801 8.4122,-6.9411 12.6841,-9.10376 14.6572,-7.42035 59.9313,-16.45081 111.2111,-22.18236 21.637,-2.41837 30.4878,-2.60672 34.8309,-0.7412 l 1.8936,0.81335 -0.3107,8.09604 c -0.4644,12.09904 -0.8563,13.52242 -6.9559,25.26271 -2.8643,5.51326 -5.6357,10.93488 -6.1587,12.04805 l -0.9507,2.02393 -5.1449,-0.0495 c -5.9847,-0.0576 -10.9572,1.10754 -25.3167,5.93223 -18.0082,6.05062 -30.4287,12.47927 -47.4049,24.53598 -11.5494,8.20257 -27.3432,23.25602 -34.1396,32.53932 -1.9551,2.67053 -3.7108,5.03421 -3.9014,5.25262 -0.1906,0.21842 -1.6669,-1.74806 -3.2805,-4.36995 z"
     id="path992"
     inkscape:connector-curvature="0" />
  <path
     style="opacity:1;fill:#c28236;fill-opacity:1;stroke:#5e0000;stroke-width:1.83514857;stroke-linejoin:round;stroke-miterlimit:4;stroke-dasharray:none;stroke-opacity:1;paint-order:markers stroke fill"
     d="m 243.12061,471.23551 c -7.7631,-3.47724 -18.2388,-10.22652 -21.799,-14.04463 l -1.1631,-1.24737 4.2877,-5.72014 c 15.1831,-20.25553 42.225,-40.87558 68.2004,-52.00443 12.139,-5.20078 30.947,-10.77402 36.3158,-10.76118 5.049,0.0121 5.0736,0.0345 4.7241,4.30778 -0.4783,5.84959 -0.4055,5.70848 -3.2853,6.37074 -5.665,1.30278 -11.5148,3.13976 -15.5191,4.87332 -7.7228,3.34342 -29.1641,15.37161 -37.4166,20.99002 -5.3021,3.60978 -11.8483,10.48067 -15.3861,16.14937 -2.955,4.73472 -7.9373,16.02108 -11.4606,25.9612 -1.2779,3.6052 -2.4499,6.69814 -2.6044,6.87318 -0.1546,0.17504 -2.3568,-0.61149 -4.8938,-1.74786 z"
     id="path994"
     inkscape:connector-curvature="0" />
  <path
     style="opacity:1;fill:#c28236;fill-opacity:1;stroke:#5e0000;stroke-width:1.83514857;stroke-linejoin:round;stroke-miterlimit:4;stroke-dasharray:none;stroke-opacity:1;paint-order:markers stroke fill"
     d="m 288.43421,484.92524 c -1.6956,-1.88467 -3.6959,-5.1112 -10.6107,-17.11563 -8.0933,-14.05024 -11.4498,-19.63867 -13.6345,-22.70057 -0.9056,-1.26912 -1.6464,-2.43685 -1.6464,-2.59495 0,-0.15811 1.2977,-2.08513 2.8838,-4.28227 3.948,-5.46876 8.7463,-9.84912 15.9975,-14.60411 9.3708,-6.14483 28.2228,-16.44026 36.4191,-19.88903 3.3095,-1.39258 13.2022,-4.14055 14.9244,-4.14571 0.8144,-0.002 2.3741,2.08519 7.3437,9.82929 7.7395,12.06034 9.6198,15.7784 12.2068,24.13701 1.8709,6.04494 2.0638,7.19404 2.5685,15.29935 0.6461,10.37685 0.1268,13.79578 -3.0631,20.16919 -2.743,5.48031 -5.9237,8.77326 -10.7928,11.17367 -4.6495,2.29212 -7.7672,2.99372 -20.4974,4.61261 -7.5659,0.96215 -11.6368,1.20364 -20.2904,1.20364 -10.6116,0 -10.8451,-0.0216 -11.8085,-1.09249 z"
     id="path996"
     inkscape:connector-curvature="0" />
  <path
     style="opacity:1;fill:#c28236;fill-opacity:1;stroke:#5e0000;stroke-width:1.83514857;stroke-linejoin:round;stroke-miterlimit:4;stroke-dasharray:none;stroke-opacity:1;paint-order:markers stroke fill"
     d="m 277.31741,486.00567 c -1.3542,-0.19043 -2.8837,-0.56898 -3.3988,-0.84122 -0.5152,-0.27224 -3.5587,-1.41817 -6.7633,-2.5465 -7.157,-2.51996 -11.0268,-4.24738 -14.2673,-6.36877 -1.9671,-1.28783 -2.4842,-1.89744 -2.4842,-2.929 0,-2.69652 10.1182,-28.57418 11.1725,-28.57418 0.1934,0 0.9743,0.92861 1.7354,2.06359 1.5025,2.24074 22.999,38.9257 22.863,39.01694 -0.4701,0.31534 -6.9559,0.44651 -8.8573,0.17914 z"
     id="path998"
     inkscape:connector-curvature="0" />
  <path
     style="opacity:0.2;fill:#cb7848;fill-opacity:0.99380164;stroke:#000000;stroke-width:1.14261997px;stroke-linecap:butt;stroke-linejoin:miter;stroke-opacity:1"
     d="m 395.72871,54.047983 h 91.27766"
     id="path1035"
     inkscape:connector-curvature="0" />
  <path
     style="opacity:0.2;fill:#cb7848;fill-opacity:0.99380164;stroke:#000000;stroke-width:1.00692105px;stroke-linecap:butt;stroke-linejoin:miter;stroke-opacity:1"
     d="m 400.00591,89.303699 h 70.88457"
     id="path1035-3"
     inkscape:connector-curvature="0" />
  <path
     style="opacity:0.2;fill:#cb7848;fill-opacity:0.99380164;stroke:#000000;stroke-width:1.00692105px;stroke-linecap:butt;stroke-linejoin:miter;stroke-opacity:1"
     d="m 378.81181,146.64589 h 70.88457"
     id="path1035-3-6"
     inkscape:connector-curvature="0" />
  <path
     style="opacity:0.2;fill:#cb7848;fill-opacity:0.99380164;stroke:#000000;stroke-width:0.90137935px;stroke-linecap:butt;stroke-linejoin:miter;stroke-opacity:1"
     d="m 375.03881,181.13409 h 56.80363"
     id="path1035-3-6-7"
     inkscape:connector-curvature="0" />
  <path
     style="opacity:0.2;fill:#cb7848;fill-opacity:0.99380164;stroke:#000000;stroke-width:1.13346612px;stroke-linecap:butt;stroke-linejoin:miter;stroke-opacity:1"
     d="m 364.13911,242.90203 h 89.82101"
     id="path1035-3-6-7-5"
     inkscape:connector-curvature="0" />
  <path
     style="opacity:0.2;fill:#cb7848;fill-opacity:0.99380164;stroke:#000000;stroke-width:1.22192299px;stroke-linecap:butt;stroke-linejoin:miter;stroke-opacity:1"
     d="m 352.85481,290.96151 h 104.3875"
     id="path1035-3-6-7-5-3"
     inkscape:connector-curvature="0" />
  <path
     style="opacity:0.2;fill:#cb7848;fill-opacity:0.99380164;stroke:#000000;stroke-width:1.08973181px;stroke-linecap:butt;stroke-linejoin:miter;stroke-opacity:1"
     d="m 349.86371,336.80519 h 83.02331"
     id="path1035-3-6-7-5-3-5"
     inkscape:connector-curvature="0" />
  <path
     style="opacity:0.2;fill:#cb7848;fill-opacity:0.99380164;stroke:#000000;stroke-width:1.12423778px;stroke-linecap:butt;stroke-linejoin:miter;stroke-opacity:1"
     d="m 335.22551,385.91518 h 88.36436"
     id="path1035-3-6-7-5-3-5-6"
     inkscape:connector-curvature="0" />
  <path
     style="opacity:0.2;fill:#cb7848;fill-opacity:0.99380164;stroke:#000000;stroke-width:1.16965199px;stroke-linecap:butt;stroke-linejoin:miter;stroke-opacity:1"
     d="m 355.42524,459.52976 h 95.64761"
     id="path1035-3-6-7-5-3-5-6-2"
     inkscape:connector-curvature="0" />
  <path
     style="opacity:0.2;fill:#cb7848;fill-opacity:0.99380164;stroke:#000000;stroke-width:0.99652153px;stroke-linecap:butt;stroke-linejoin:miter;stroke-opacity:1"
     d="m 326.53503,484.53557 h 69.42793"
     id="path1035-3-6-7-5-3-5-6-2-9"
     inkscape:connector-curvature="0" />
</svg>
